<svg version="1.2" xmlns="http://www.w3.org/2000/svg" viewBox="0 0 24 24" width="24" height="24">
	<title>gift-blue-svg</title>
	<style>
		.s0 { fill: none;stroke: #ffcb05;stroke-linecap: round;stroke-linejoin: round;stroke-width: 2 } 
	</style>
	<path id="Layer" fill-rule="evenodd" class="s0" d="m19.5 12.1q0.2 0.2 0.4 0.4c0.1 0.3 0.1 0.5 0.1 1.1v4.8c0 0.6 0 0.8-0.1 1.1q-0.2 0.2-0.4 0.4c-0.3 0.1-0.5 0.1-1.1 0.1h-6.4l1.6-8-1.6-2.4c0-0.6 0-0.8 0.1-1.1q0.2-0.2 0.4-0.4c0.3-0.1 0.5-0.1 1.1-0.1h5.8c0.6 0 0.8 0 1.1 0.1q0.2 0.2 0.4 0.4c0.1 0.3 0.1 0.5 0.1 1.1v0.8c0 0.6 0 0.8-0.1 1.1q-0.2 0.2-0.4 0.4c-0.3 0.1-0.5 0.1-1.1 0.1h-1c0.6 0 0.8 0 1.1 0.1zm-7.5 7.9h-6.4c-0.6 0-0.8 0-1.1-0.1q-0.2-0.2-0.4-0.4c-0.1-0.3-0.1-0.5-0.1-1.1v-4.8c0-0.6 0-0.8 0.1-1.1q0.2-0.2 0.4-0.4c0.3-0.1 0.5-0.1 1.1-0.1h-1c-0.6 0-0.8 0-1.1-0.1q-0.2-0.2-0.4-0.4c-0.1-0.3-0.1-0.5-0.1-1.1v-0.8c0-0.6 0-0.8 0.1-1.1q0.2-0.2 0.4-0.4c0.3-0.1 0.5-0.1 1.1-0.1h5.8c0.6 0 0.8 0 1.1 0.1q0.2 0.2 0.4 0.4c0.1 0.3 0.1 0.5 0.1 1.1l-1.6 2.4zm0-6.4c0-0.6 0-0.8 0.1-1.1q0.2-0.2 0.4-0.4c0.3-0.1 0.5-0.1 1.1-0.1zm-1.6-1.6c0.6 0 0.8 0 1.1 0.1q0.2 0.2 0.4 0.4c0.1 0.3 0.1 0.5 0.1 1.1zm3.2 0c-0.6 0-0.8 0-1.1-0.1q-0.2-0.2-0.4-0.4c-0.1-0.3-0.1-0.5-0.1-1.1zm-1.6-1.6c0 0.6 0 0.8-0.1 1.1q-0.2 0.2-0.4 0.4c-0.3 0.1-0.5 0.1-1.1 0.1zm2.5-7.4c1.4 0 2.5 1.1 2.5 2.5 0 1.4-1.1 2.5-2.5 2.5h-2.5v-2.5c0-1.4 1.1-2.5 2.5-2.5zm-5 0c-1.4 0-2.5 1.1-2.5 2.5 0 1.4 1.1 2.5 2.5 2.5h2.5v-2.5c0-1.4-1.1-2.5-2.5-2.5zm2.5 17v-6.4m0-3.2v-0.8m0-4.1v2.5"/>
</svg>