<svg version="1.2" xmlns="http://www.w3.org/2000/svg" viewBox="0 0 24 24" width="24" height="24">
	<title>home-icon-svg</title>
	<style>
		.s0 { fill: none;stroke: #ffcb05;stroke-linecap: round;stroke-linejoin: round;stroke-width: 2 } 
	</style>
	<path id="Layer" fill-rule="evenodd" class="s0" d="m20 17v-5.5c0-0.6 0-0.8-0.1-1.1q-0.1-0.3-0.2-0.6c-0.2-0.2-0.4-0.4-0.8-0.8l-4.8-4.2c-0.7-0.6-1.1-0.9-1.5-1.1q-0.6-0.1-1.2 0c-0.4 0.2-0.8 0.5-1.5 1.1l-4.8 4.2c-0.4 0.4-0.6 0.6-0.8 0.8q-0.1 0.3-0.2 0.6c-0.1 0.3-0.1 0.5-0.1 1.1v5.5c0 0.9 0 1.4 0.2 1.8 0.2 0.5 0.5 0.8 1 1 0.4 0.2 0.9 0.2 1.8 0.2 0.9 0 1.4 0 1.8-0.2 0.5-0.2 0.8-0.5 1-1 0.2-0.4 0.2-0.9 0.2-1.8v-1c0-1.1 0.9-2 2-2 1.1 0 2 0.9 2 2v1c0 0.9 0 1.4 0.2 1.8 0.2 0.5 0.5 0.8 1 1 0.4 0.2 0.9 0.2 1.8 0.2 0.9 0 1.4 0 1.8-0.2 0.5-0.2 0.8-0.5 1-1 0.2-0.4 0.2-0.9 0.2-1.8z"/>
</svg>